<?xml version="1.0" encoding="utf-8"?>
<!-- Generator: Adobe Illustrator 21.1.0, SVG Export Plug-In . SVG Version: 6.00 Build 0)  -->
<svg version="1.1" id="Layer_1" xmlns="http://www.w3.org/2000/svg" xmlns:xlink="http://www.w3.org/1999/xlink" x="0px" y="0px"
	 viewBox="0 0 500 178.2" style="enable-background:new 0 0 500 178.2;" xml:space="preserve">
<style type="text/css">
	.st0{display:none;}
	.st1{fill:#FFFFFF;}
</style>
<g id="Layer_1_1_" class="st0">
	
		<image style="display:inline;overflow:visible;enable-background:new    ;" width="300" height="107" xlink:href="../../../Downloads/LegacyTitle.png"  transform="matrix(1 0 0 1 100 34.1416)">
	</image>
</g>
<g id="Layer_2">
	<g>
		<polygon class="st1" points="0,0.2 0,154.4 59.3,154.4 66.1,120.5 30.5,120.5 30.5,0.2 		"/>
	</g>
	<g>
		<polygon class="st1" points="71.2,0.2 71.2,154.4 137.3,154.4 144.1,118.8 98.3,118.8 98.3,93.4 130.5,93.4 137.3,57.8 98.3,57.8 
			98.3,35.8 140.7,35.8 133.9,0.2 		"/>
	</g>
	<g>
		<path class="st1" d="M208.5,120.5V83.3h-10.2V51h37.3v103.4c0,0-35.6,1.7-45.8-5.1s-44.1-35.6-40.7-91.5s35.6-57.6,54.2-57.6
			s25.4,0,25.4,0l6.8,35.6c0,0-39,0-44.1,0s-11.9,5.1-13.6,18.6C176.3,67.8,172.9,108.7,208.5,120.5z"/>
	</g>
	<g>
		<path class="st1" d="M276.3,71.4h27.1V40.9h27.1v113.6h-27.1v-49.2h-28.8c0,0-3.4,25.4,10.2,49.2L261,178.2
			c0,0-20.3-45.8-15.3-100s41-70.3,47.5-72.9c8.5-3.4,18.6-5.1,35.6-5.1l6.8,35.6C335.6,35.8,278,25.6,276.3,71.4z"/>
	</g>
	<g>
		<path class="st1" d="M410.2,35.8l-6.8-35.6c0,0-33.1-2.7-45.8,11.9c-11.9,13.6-23.7,44.1-15.3,78c8.5,33.9,27.1,62.7,62.7,64.4
			l5.1-33.9c0,0-45.8,5.1-40.7-66.1c0,0,1.7-16.9,13.6-18.6S410.2,35.8,410.2,35.8z"/>
	</g>
	<g>
		<path class="st1" d="M410.2,0.2H439l13.6,49.2l15.3-49.2H500L467.8,90c0,0-3.4,61,1.7,64.4l-23.7,23.7c0,0-6.8-10.2-6.8-44.1V90
			L410.2,0.2z"/>
	</g>
</g>
</svg>
