<?xml version="1.0" encoding="utf-8"?>
<!-- Generator: Adobe Illustrator 22.0.1, SVG Export Plug-In . SVG Version: 6.00 Build 0)  -->
<svg version="1.1" id="Layer_1" xmlns="http://www.w3.org/2000/svg" xmlns:xlink="http://www.w3.org/1999/xlink" x="0px" y="0px"
	 viewBox="0 0 512 512" style="enable-background:new 0 0 512 512;" xml:space="preserve">
<style type="text/css">
	.st0{fill:#FDFDFD;}
</style>
<path class="st0" d="M0,0v512h512V0H0z M480.3,480.3H31.7V31.7h448.7V480.3z"/>
<g>
	<path id="LinkedIn" class="st0" d="M423.5,292.2V416h-71.8V300.5c0-29-10.4-48.8-36.4-48.8c-19.8,0-31.6,13.3-36.8,26.3
		c-1.9,4.6-2.4,11-2.4,17.5V416h-71.8c0,0,1-195.7,0-216h71.8v30.6c-0.1,0.2-0.3,0.5-0.5,0.7h0.5v-0.7c9.5-14.7,26.6-35.7,64.7-35.7
		C388.1,195,423.5,225.9,423.5,292.2z M129.2,96c-24.6,0-40.6,16.1-40.6,37.3c0,20.7,15.6,37.3,39.7,37.3h0.5
		c25,0,40.6-16.6,40.6-37.3C168.8,112.1,153.7,96,129.2,96z M92.8,416h71.8v-216H92.8V416z"/>
</g>
</svg>
