<?xml version="1.0" encoding="utf-8"?>
<!-- Generator: Adobe Illustrator 22.0.1, SVG Export Plug-In . SVG Version: 6.00 Build 0)  -->
<svg version="1.1" id="Layer_1" xmlns="http://www.w3.org/2000/svg" xmlns:xlink="http://www.w3.org/1999/xlink" x="0px" y="0px"
	 viewBox="0 0 512 512" style="enable-background:new 0 0 512 512;" xml:space="preserve">
<style type="text/css">
	.st0{fill:#FDFDFD;}
</style>
<g>
	<path class="st0" d="M89.7,360.5c30.2,19.4,66.1,30.7,104.6,30.7c125.5,0,194.1-104,194.1-194.1c0-3-0.1-5.9-0.2-8.8
		c13.3-9.6,24.9-21.6,34-35.3c-12.2,5.4-25.4,9.1-39.2,10.7c14.1-8.4,24.9-21.8,30-37.7c-13.2,7.8-27.8,13.5-43.3,16.6
		c-12.4-13.3-30.2-21.5-49.8-21.5c-37.7,0-68.2,30.5-68.2,68.2c0,5.3,0.6,10.6,1.8,15.5c-56.7-2.8-107-30-140.6-71.3
		c-5.9,10.1-9.2,21.8-9.2,34.3c0,23.7,12,44.6,30.3,56.8c-11.2-0.4-21.7-3.4-30.9-8.5c0,0.3,0,0.6,0,0.9c0,33.1,23.5,60.6,54.7,66.9
		c-5.7,1.6-11.8,2.4-18,2.4c-4.4,0-8.7-0.4-12.8-1.2c8.7,27.1,33.9,46.8,63.7,47.4c-23.4,18.3-52.8,29.2-84.7,29.2
		C100.5,361.4,95.1,361.1,89.7,360.5z"/>
	<path class="st0" d="M0,0v512h512V0H0z M480.3,480.3H31.7V31.7h448.7V480.3z"/>
</g>
</svg>
